<?xml version="1.0" standalone="no"?>
<!DOCTYPE svg PUBLIC "-//W3C//DTD SVG 20010904//EN"
 "http://www.w3.org/TR/2001/REC-SVG-20010904/DTD/svg10.dtd">
<svg version="1.0" xmlns="http://www.w3.org/2000/svg"
 width="700.000000pt" height="700.000000pt" viewBox="0 0 700.000000 700.000000"
 preserveAspectRatio="xMidYMid meet">
<metadata>
Created by potrace 1.14, written by Peter Selinger 2001-2017
</metadata>
<g transform="translate(0.000000,700.000000) scale(0.100000,-0.100000)"
fill="#000000" stroke="none">
<path d="M2130 5897 c-3 -3 -38 -7 -78 -11 -41 -3 -77 -8 -80 -10 -4 -2 -27
-7 -52 -10 -25 -3 -73 -13 -105 -22 -33 -8 -67 -17 -75 -19 -51 -11 -211 -75
-305 -120 -93 -45 -289 -163 -305 -184 -3 -3 -27 -24 -55 -46 -108 -86 -238
-229 -323 -357 -48 -71 -142 -245 -142 -263 0 -4 -6 -21 -14 -38 -21 -46 -51
-149 -72 -247 -19 -89 -26 -391 -11 -475 3 -22 9 -56 12 -75 46 -278 218 -619
460 -909 97 -117 141 -182 172 -256 19 -45 85 -251 118 -365 7 -25 35 -119 63
-210 144 -469 182 -592 184 -607 3 -14 -10 -16 -77 -18 -93 -2 -140 -20 -185
-71 -28 -33 -57 -110 -46 -122 4 -3 109 -6 234 -7 l227 -1 105 -51 c154 -74
310 -148 440 -209 63 -30 133 -63 155 -74 25 -12 43 -16 49 -10 6 6 10 39 10
74 1 56 -3 70 -29 108 -25 36 -49 52 -142 98 -61 30 -114 57 -116 60 -3 3 120
5 273 5 l278 0 -3 25 c-9 69 -45 119 -110 153 -38 19 -58 20 -345 22 -272 1
-309 3 -343 19 -48 24 -102 86 -115 134 -5 20 -42 143 -82 272 -40 129 -88
287 -107 350 -19 63 -46 153 -60 200 -48 157 -30 273 54 357 65 65 153 95 237
79 45 -9 96 -60 130 -132 20 -41 286 -885 286 -905 0 -2 -37 -5 -83 -5 -130
-2 -196 -47 -227 -155 -7 -23 -5 -31 8 -37 9 -5 112 -8 227 -7 l210 1 110 -52
c61 -28 167 -79 237 -112 70 -34 147 -70 172 -82 25 -11 87 -40 138 -65 54
-26 96 -41 101 -36 19 19 20 100 3 146 -23 59 -63 91 -178 145 -54 25 -98 47
-98 50 0 3 88 6 196 5 l196 0 60 -80 c208 -276 501 -419 838 -410 381 10 721
235 881 582 80 174 109 431 69 614 -102 469 -504 798 -976 797 -446 0 -828
-283 -958 -708 -35 -114 -45 -194 -41 -325 4 -93 10 -141 37 -255 5 -22 -465
-24 -532 -3 -69 23 -114 78 -144 176 -210 687 -376 1234 -376 1241 0 9 88 51
155 74 107 37 218 62 350 79 117 15 593 8 705 -11 14 -2 61 -7 105 -11 44 -3
94 -8 111 -10 160 -20 504 -27 624 -11 240 30 439 120 611 273 102 91 142 113
207 113 75 0 142 -25 252 -94 334 -208 677 -541 882 -856 46 -71 158 -266 158
-275 0 -2 15 -36 34 -77 18 -40 41 -95 50 -121 l18 -48 31 19 c50 29 87 90 94
153 10 95 -33 204 -168 434 -82 140 -272 379 -429 540 -214 220 -385 364 -669
564 -77 54 -138 100 -136 103 2 2 7 42 11 89 26 336 -200 696 -540 858 -131
63 -205 82 -346 88 -128 5 -216 -9 -332 -53 l-68 -26 -43 38 c-23 21 -44 40
-47 44 -22 27 -248 190 -348 252 -133 81 -408 208 -452 208 -9 0 -20 4 -26 9
-9 9 -189 56 -254 66 -19 3 -60 10 -90 16 -54 10 -421 24 -430 16z m2316
-1050 c97 -49 163 -150 165 -253 2 -87 -33 -199 -39 -126 -6 72 -105 152 -187
152 -95 0 -185 -84 -190 -177 -3 -50 14 -104 43 -137 16 -18 16 -19 -13 -12
-16 4 -51 21 -76 37 -119 76 -167 241 -107 369 27 58 48 84 100 123 81 61 211
71 304 24z"/>
</g>
</svg>
