<?xml version="1.0" encoding="UTF-8"?> <svg id="Layer_1" xmlns="http://www.w3.org/2000/svg" xmlns:xlink="http://www.w3.org/1999/xlink" version="1.1" viewBox="0 0 1500 1500"> <defs> <style> .st0, .st1 { fill: none; } .st2 { fill: #f8992a; } .st3 { fill: #da7c2b; } .st4 { fill: #c7c8ca; } .st1 { stroke: #fff; stroke-miterlimit: 10; stroke-width: 1.2px; } .st5 { fill: #fff; } .st6 { fill: #f89a16; } .st7 { fill: #d97d2b; } .st8 { clip-path: url(#clippath); } </style> <clipPath id="clippath"> <rect class="st0" x="716.2" y="300.2" width="55.2" height="88.6" rx="2.5" ry="2.5" transform="translate(310 1040) rotate(-82.9)"/> </clipPath> </defs> <g> <path class="st4" d="M1469.1,1361.8c-13.6,106.1-349,143.8-749,84.3C320.1,1386.6,6.8,1252.4,20.4,1146.3c13.6-106.1,349-143.8,749-84.3,400,59.5,713.3,193.7,699.7,299.8h0Z"/> <circle cx="384.2" cy="963.1" r="168.7"/> <g> <g> <path d="M1225.2,1285.8l-45.7,20-72.3-162.8c-11.1-25.2.4-54.7,25.7-65.7h0l92.3,208.5Z"/> <path d="M1273.5,1306.2l-49.3-7.8,29-182.6c4.3-27.2,29.9-45.8,57.1-41.5h0l-36.8,231.9h0Z"/> <path d="M1201,962.6h38.1v349.4h-53.3v-293.9c0-55.5,58.3-55.5,58.3-55.5h-43.1Z"/> <path d="M1179.5,1305.8l1.3,3.4c7.2,19,25.3,31.6,45.6,31.6h0c24,0,44.4-17.5,48.2-41.2l7.2-45.5-102.3,51.7h0Z"/> </g> <polygon points="865.6 1158.3 1204.3 1335.4 1224.2 1298.4 891.8 1103.8 865.6 1158.3"/> </g> <circle cx="769.3" cy="1042.8" r="282.2"/> <path class="st4" d="M985.4,1420.8l-45.7,20-72.3-162.8c-11.1-25.2.4-54.7,25.7-65.7h0l92.3,208.5Z"/> <polygon points="636.3 1291.7 298.7 1108.5 413.5 1001.6 668.5 1050.8 636.3 1291.7"/> <path d="M411.8,854.8c9.3-17.4,151.4-269.1,202.6-303.5,27.7-18.6,70.7,15.2,70.7,15.2,0,0-34.4,13.7-74.6,72-37.3,54.2-152.9,259.2-152.9,259.2"/> <g> <g> <path class="st4" d="M1003.6,1083.8h0c-32.2,0-58.3,26.1-58.3,58.3v151.6l58.3,139.5v-349.4Z"/> <path d="M999.6,1413.2l-45.7,20-72.3-162.8c-11.1-25.2.4-54.7,25.7-65.7h0l92.3,208.5Z"/> <path class="st4" d="M1032.3,1428.4l-49.3-7.8,29-182.6c4.3-27.2,29.9-45.8,57.1-41.5h0l-36.8,231.9Z"/> <path d="M1047.9,1433.7l-49.3-7.8,29-182.6c4.3-27.2,29.9-45.8,57.1-41.5h0l-36.8,231.9Z"/> <path d="M974,1083.8h38.1v349.4h-53.3v-334.2c0-8.4,6.8-15.2,15.2-15.2Z"/> <path d="M953.9,1433.2l1.3,3.4c7.2,19,25.3,31.6,45.6,31.6h0c24,0,44.4-17.5,48.2-41.2l7.2-45.5-102.3,51.7h0Z"/> </g> <polygon points="640 1285.8 978.7 1462.9 998.6 1425.9 666.3 1231.3 640 1285.8"/> </g> <g> <path class="st6" d="M563.7,682.5l36.7-52.9,58.1,40.2c14.6,10.1,18.2,30.2,8.1,44.8h0c-10.1,14.6-30.2,18.2-44.8,8.1l-58.1-40.2h0Z"/> <path class="st3" d="M611.9,637l-11.7-8.1-36.6,53,14.4,10c11.2-18.4,22.7-36.5,33.9-54.8h0Z"/> <rect x="608.8" y="637.5" width="9.2" height="80.8" transform="translate(-293.1 796.3) rotate(-55.3)"/> </g> </g> <path d="M1050.9,254.2c0-45.7-37.8-82.9-85.3-85.5.9-4.1,1.3-8.4,1.3-12.8,0-36.4-31.2-67.8-69.7-66s-35.5,7-48,18.2c-8.8-38.7-45.1-67.7-88.6-67.7s-80.5,29.5-88.8,68.7c-12.6-11.9-30-19.2-49.2-19.2-38.5,0-69.7,29.5-69.7,66s.5,8.6,1.3,12.7c-48.1,2.1-86.4,39.6-86.4,85.6s38.5,83.6,86.7,85.6c-1,4.5-1.6,9.2-1.6,14,0,36.4,31.2,65.6,69.7,66s36.6-7.4,49.2-19.2c8.3,39.2,44.9,68.7,88.8,68.7s79.8-29,88.6-67.7c12.5,11.3,29.4,18.2,48,18.2,38.5,0,69.7-29.5,69.7-66s-.6-9.5-1.6-14.1c47.7-2.5,85.6-39.8,85.6-85.5h0Z"/> <path d="M472.7,398.1c-19.8,0-35.9,9.8-35.9,21.9s16.1,21.9,35.9,21.9,35.9-9.8,35.9-21.9-16.1-21.9-35.9-21.9Z"/> <ellipse cx="406" cy="491.3" rx="29.6" ry="18.1"/> <path d="M378.5,552.7c-12.7,0-23,6.3-23,14.1s10.3,14.1,23,14.1,23-6.3,23-14.1-10.3-14.1-23-14.1Z"/> <g> <polygon class="st5" points="815.2 268.8 827.2 293.4 801.5 282.1 815.2 268.8"/> <circle class="st5" cx="786.8" cy="251.1" r="40.7"/> </g> <g> <rect class="st6" x="716.2" y="300.2" width="55.2" height="88.6" rx="2.5" ry="2.5" transform="translate(310 1040) rotate(-82.9)"/> <g class="st8"> <g> <path class="st7" d="M790.1,382.4l-100.9-12.6,47.6-29.1c4.6-2.8,10.5-2.1,14.3,1.8h0l39,39.9h0ZM702.7,366.8l75,9.4-29.9-30.6c-2.3-2.3-5.8-2.8-8.6-1.1l-36.5,22.3h0Z"/> <g> <path class="st6" d="M736,349.6l-41-41.9,104.7,13.1-50,30.6c-4.4,2.7-10,2-13.6-1.7h-.1Z"/> <path class="st7" d="M743.9,355.3c-3.5,0-6.9-1.4-9.5-4l-45.6-46.6,117.6,14.7-55.6,34c-2.2,1.3-4.6,2-7,2h0ZM701.2,310.8l36.4,37.2c2.9,2.9,7.3,3.5,10.8,1.4l44.5-27.1-91.7-11.4h0Z"/> </g> </g> </g> </g> <g> <rect class="st2" x="626.7" y="149.8" width="7.3" height="52.3"/> <g> <line class="st0" x1="604.2" y1="175.9" x2="656.5" y2="175.9"/> <rect class="st2" x="604.2" y="172.3" width="52.3" height="7.3"/> </g> <g> <line class="st0" x1="648.8" y1="157.4" x2="611.9" y2="194.4"/> <rect class="st2" x="604.1" y="172.2" width="52.3" height="7.3" transform="translate(60.2 497.2) rotate(-45)"/> </g> <g> <line class="st0" x1="611.9" y1="157.4" x2="648.8" y2="194.4"/> <rect class="st2" x="626.6" y="149.7" width="7.3" height="52.3" transform="translate(60.2 497.2) rotate(-45)"/> </g> <g> <circle class="st5" cx="630.3" cy="175.9" r="16.9"/> <path class="st2" d="M630.3,196.4c-11.3,0-20.5-9.2-20.5-20.5s9.2-20.5,20.5-20.5,20.5,9.2,20.5,20.5-9.2,20.5-20.5,20.5ZM630.3,162.7c-7.3,0-13.2,5.9-13.2,13.2s5.9,13.2,13.2,13.2,13.2-5.9,13.2-13.2-5.9-13.2-13.2-13.2Z"/> </g> </g> <g> <rect class="st5" x="866.1" y="129.1" width="3.4" height="40.7"/> <rect class="st5" x="847.4" y="147.7" width="40.7" height="3.4"/> <rect class="st5" x="847.4" y="147.7" width="40.7" height="3.4" transform="translate(148.5 657.4) rotate(-45)"/> <rect class="st5" x="866.1" y="129.1" width="3.4" height="40.7" transform="translate(148.5 657.4) rotate(-45)"/> <path class="st5" d="M867.8,164.3c-8.2,0-14.9-6.7-14.9-14.9s6.7-14.9,14.9-14.9,14.9,6.7,14.9,14.9-6.7,14.9-14.9,14.9ZM867.8,138c-6.3,0-11.4,5.1-11.4,11.4s5.1,11.4,11.4,11.4,11.4-5.1,11.4-11.4-5.1-11.4-11.4-11.4Z"/> </g> <g> <rect class="st6" x="994.1" y="241.4" width="3.4" height="40.7"/> <rect class="st6" x="975.4" y="260" width="40.7" height="3.4"/> <rect class="st6" x="975.4" y="260" width="40.7" height="3.4" transform="translate(106.6 780.8) rotate(-45)"/> <rect class="st6" x="994.1" y="241.4" width="3.4" height="40.7" transform="translate(106.6 780.8) rotate(-45)"/> <path class="st6" d="M995.8,276.6c-8.2,0-14.9-6.7-14.9-14.9s6.7-14.9,14.9-14.9,14.9,6.7,14.9,14.9-6.7,14.9-14.9,14.9ZM995.8,250.3c-6.3,0-11.4,5.1-11.4,11.4s5.1,11.4,11.4,11.4,11.4-5.1,11.4-11.4-5.1-11.4-11.4-11.4h0Z"/> </g> <circle class="st6" cx="758.2" cy="221.2" r="59.4"/> <g> <rect class="st5" x="535.5" y="228.1" width="3.4" height="40.7"/> <rect class="st5" x="516.9" y="246.7" width="40.7" height="3.4"/> <rect class="st5" x="516.9" y="246.8" width="40.7" height="3.4" transform="translate(-18.3 452.7) rotate(-45)"/> <rect class="st5" x="535.5" y="228.2" width="3.4" height="40.7" transform="translate(-18.4 452.7) rotate(-45)"/> <path class="st5" d="M537.2,263.3c-8.2,0-14.9-6.7-14.9-14.9s6.7-14.9,14.9-14.9,14.9,6.7,14.9,14.9-6.7,14.9-14.9,14.9ZM537.2,237c-6.3,0-11.4,5.1-11.4,11.4s5.1,11.4,11.4,11.4,11.4-5.1,11.4-11.4-5.1-11.4-11.4-11.4Z"/> </g> <g> <rect x="642.7" y="335.1" width="4" height="28.8"/> <g> <line class="st0" x1="630.3" y1="349.5" x2="659.1" y2="349.5"/> <rect x="630.3" y="347.5" width="28.8" height="4"/> </g> <g> <line class="st0" x1="654.9" y1="339.3" x2="634.5" y2="359.7"/> <rect x="630.3" y="347.6" width="28.8" height="4" transform="translate(-58.3 558.3) rotate(-45)"/> </g> <g> <line class="st0" x1="634.5" y1="339.3" x2="654.9" y2="359.7"/> <rect x="642.7" y="335.1" width="4" height="28.8" transform="translate(-58.3 558.2) rotate(-45)"/> </g> <g> <circle class="st5" cx="644.7" cy="349.5" r="9.3"/> <path d="M644.7,360.8c-6.2,0-11.3-5.1-11.3-11.3s5.1-11.3,11.3-11.3,11.3,5.1,11.3,11.3-5.1,11.3-11.3,11.3ZM644.7,342.2c-4,0-7.3,3.3-7.3,7.3s3.3,7.3,7.3,7.3,7.3-3.3,7.3-7.3-3.3-7.3-7.3-7.3Z"/> </g> </g> <g> <path class="st5" d="M758.2,255.2c-19.6,0-35.5-15.9-35.5-35.5s15.9-35.5,35.5-35.5,35.5,15.9,35.5,35.5-15.9,35.5-35.5,35.5ZM758.2,188.3c-17.3,0-31.4,14.1-31.4,31.4s14.1,31.4,31.4,31.4,31.4-14.1,31.4-31.4-14.1-31.4-31.4-31.4Z"/> <path class="st5" d="M758.2,255.2c-11.2,0-19.9-15.6-19.9-35.5s8.7-35.5,19.9-35.5,19.9,15.6,19.9,35.5-8.7,35.5-19.9,35.5ZM758.2,188.3c-8.6,0-15.8,14.4-15.8,31.4s7.2,31.4,15.8,31.4,15.8-14.4,15.8-31.4-7.2-31.4-15.8-31.4Z"/> <rect class="st5" x="756.2" y="186.2" width="4.1" height="66.9"/> <g> <line class="st1" x1="727.9" y1="231.1" x2="788.6" y2="231.1"/> <line class="st1" x1="727.9" y1="208.3" x2="788.6" y2="208.3"/> </g> </g> <g> <path class="st2" d="M854.7,327c-6.6,0-12.1-5.4-12.1-12.1s5.4-12.1,12.1-12.1,12.1,5.4,12.1,12.1-5.4,12.1-12.1,12.1ZM854.7,310.2c-2.6,0-4.8,2.1-4.8,4.8s2.1,4.8,4.8,4.8,4.8-2.1,4.8-4.8-2.1-4.8-4.8-4.8Z"/> <path class="st2" d="M877.9,318.6h-14.8v-7.3h14.8c11.3,0,20.5-9.2,20.5-20.5v-20.4h7.3v20.4c0,15.3-12.5,27.8-27.8,27.8Z"/> <polygon class="st2" points="892 285.6 886.9 280.4 902 265.3 917.1 280.4 911.9 285.6 902 275.6 892 285.6"/> </g> <g> <rect class="st5" x="849.5" y="329.4" width="6.9" height="35.9" transform="translate(4.2 704.9) rotate(-45)"/> <rect class="st5" x="835" y="343.9" width="35.9" height="6.9" transform="translate(4.2 704.9) rotate(-45)"/> </g> <g> <rect class="st4" x="898.2" y="228.4" width="7.3" height="35.9" transform="translate(89.9 709.9) rotate(-45)"/> <rect class="st4" x="884" y="242.8" width="35.9" height="7.3" transform="translate(89.9 710) rotate(-45)"/> </g> <g> <rect class="st4" x="757" y="92.8" width="7.3" height="35.9" transform="translate(144.5 570.3) rotate(-45)"/> <rect class="st4" x="742.7" y="107.1" width="35.9" height="7.3" transform="translate(144.5 570.3) rotate(-45)"/> </g> <g> <rect class="st4" x="604.4" y="295.4" width="12.4" height="12.9"/> <rect class="st4" x="622.4" y="283.6" width="12.4" height="24.6"/> <rect class="st4" x="640.5" y="271.5" width="12.4" height="36.7"/> </g> <path class="st6" d="M393.2,938.9c-18.7,21.2-51.2,23.3-72.4,4.6l11.4-12.9c14.1,12.4,35.7,11.1,48.1-3.1s11.1-35.7-3.1-48.1l11.4-12.9c21.2,18.7,23.3,51.2,4.6,72.4h0Z"/> <polygon class="st6" points="715.9 256.5 708.3 278.1 730.7 268.8 715.9 256.5"/> </svg>
