<?xml version="1.0" encoding="utf-8"?>
<!-- Generator: Adobe Illustrator 27.3.1, SVG Export Plug-In . SVG Version: 6.00 Build 0)  -->
<svg version="1.1" id="uiLanguageSelectorButton" xmlns="http://www.w3.org/2000/svg" xmlns:xlink="http://www.w3.org/1999/xlink"
	 x="0px" y="0px" viewBox="0 0 30 30" style="enable-background:new 0 0 30 30;" xml:space="preserve">
<style type="text/css">
	.st0{fill:#FFFFFF;}
	.st1{fill:#CCCCCC;}
	.st2{fill:#F78422;}
</style>
<g>
	<path class="st0" d="M2.9,29.6c-1.4,0-2.6-1.1-2.6-2.6V2.9c0-1.4,1.1-2.6,2.6-2.6h24.1c1.4,0,2.6,1.1,2.6,2.6v24.1
		c0,1.4-1.1,2.6-2.6,2.6H2.9z"/>
	<path class="st1" d="M27.1,0.6c1.3,0,2.3,1,2.3,2.3v24.1c0,1.3-1,2.3-2.3,2.3H2.9c-1.3,0-2.3-1-2.3-2.3V2.9c0-1.3,1-2.3,2.3-2.3
		H27.1 M27.1,0.1H2.9c-1.6,0-2.8,1.3-2.8,2.8v24.1c0,1.6,1.3,2.8,2.8,2.8h24.1c1.6,0,2.8-1.3,2.8-2.8V2.9
		C29.9,1.4,28.6,0.1,27.1,0.1L27.1,0.1z"/>
</g>
<g>
	<path class="st2" d="M18,24h-3c0-5.2-4.2-9.4-9.4-9.4v-3C12.4,11.6,18,17.2,18,24z"/>
	<path class="st2" d="M24.5,24h-3c-0.1-8.7-7.2-15.9-16-15.9v-3C16,5.1,24.5,13.6,24.5,24z"/>
	<circle class="st2" cx="8.1" cy="21.6" r="2.6"/>
</g>
</svg>
