<?xml version="1.0" encoding="utf-8"?>
<!-- Generator: Adobe Illustrator 27.3.1, SVG Export Plug-In . SVG Version: 6.00 Build 0)  -->
<svg version="1.1" id="uiLanguageSelectorButton" xmlns="http://www.w3.org/2000/svg" xmlns:xlink="http://www.w3.org/1999/xlink"
	 x="0px" y="0px" viewBox="0 0 30 30" style="enable-background:new 0 0 30 30;" xml:space="preserve">
<style type="text/css">
	.st0{fill:#FFFFFF;}
	.st1{fill:#CCCCCC;}
	.st2{fill:#3366CC;}
</style>
<g>
	<path class="st0" d="M2.9,29.6c-1.4,0-2.6-1.1-2.6-2.6V2.9c0-1.4,1.1-2.6,2.6-2.6h24.1c1.4,0,2.6,1.1,2.6,2.6v24.1
		c0,1.4-1.1,2.6-2.6,2.6H2.9z"/>
	<path class="st1" d="M27.1,0.6c1.3,0,2.3,1,2.3,2.3v24.1c0,1.3-1,2.3-2.3,2.3H2.9c-1.3,0-2.3-1-2.3-2.3V2.9c0-1.3,1-2.3,2.3-2.3
		H27.1 M27.1,0.1H2.9c-1.6,0-2.8,1.3-2.8,2.8v24.1c0,1.6,1.3,2.8,2.8,2.8h24.1c1.6,0,2.8-1.3,2.8-2.8V2.9
		C29.9,1.4,28.6,0.1,27.1,0.1L27.1,0.1z"/>
</g>
<g>
	<path class="st2" d="M26.4,24.1h-1.7c-0.2,0-0.3-0.1-0.5-0.2S24,23.7,24,23.6l-1.1-3h-5.7l-1.1,2.9c-0.1,0.2-0.2,0.2-0.2,0.3
		c-0.2,0.2-0.3,0.3-0.5,0.3h-1.6L19,11.1h2.1L26.4,24.1z M22.4,19.2l-1.8-4.8c-0.2-0.5-0.3-0.9-0.5-1.4c-0.1,0.3-0.2,0.5-0.2,0.8
		l-0.2,0.6l-1.8,4.8L22.4,19.2z M15.2,17.4c-1.1-0.4-2.3-0.9-3.3-1.6c1.6-1.7,2.7-3.8,3.2-6.2h2.2V8.2H12c-0.1-0.2-0.2-0.5-0.2-0.6
		c-0.3-0.8-0.6-1.7-0.6-1.7L9.5,6.5c0,0,0.5,1,0.7,1.7H3.6v1.5H6c0.5,2.3,1.6,4.4,3.3,6.2c-1.7,1.1-3.6,1.9-5.7,2.4
		c0.5,0.6,0.8,1.1,1,1.6c2.1-0.7,4.1-1.7,5.9-2.9c1.3,0.8,2.7,1.5,4,2.1L15.2,17.4z M7.7,9.7h5.6c-0.4,2-1.4,3.7-2.8,5.1
		C9.2,13.3,8.2,11.6,7.7,9.7z"/>
</g>
</svg>
